<svg xmlns="http://www.w3.org/2000/svg" width="18" height="18" fill="none"><g clip-path="url(#clip0_3_610)"><path d="M9.8775 3L13.5 6.6225V15h-9V3h5.3775zM10.5 1.5h-6C3.675 1.5 3 2.175 3 3v12c0 .825.675 1.5 1.5 1.5h9c.825 0 1.5-.675 1.5-1.5V6l-4.5-4.5zm-1.5 9c.825 0 1.5-.675 1.5-1.5S9.825 7.5 9 7.5 7.5 8.175 7.5 9s.675 1.5 1.5 1.5zm3 2.5725c0-.6075-.36-1.1475-.915-1.3875-.6375-.2775-1.3425-.435-2.085-.435-.7425 0-1.4475.1575-2.085.435-.555.24-.915.78-.915 1.3875V13.5h6v-.4275z" fill="#323232"/></g><defs><clipPath id="clip0_3_610"><path fill="#fff" d="M0 0h18v18H0z"/></clipPath></defs></svg>