<svg xmlns="http://www.w3.org/2000/svg" width="18" height="18" fill="none"><path d="M7.5075 15.7575c0 .825.6675 1.4925 1.4925 1.4925s1.4925-.6675 1.4925-1.4925h-2.985zM9 4.5c2.07 0 3.75 1.68 3.75 3.75v5.25h-7.5V8.25C5.25 6.18 6.93 4.5 9 4.5zm0-3.375c-.6225 0-1.125.5025-1.125 1.125v.8775c-2.355.51-4.125 2.61-4.125 5.1225v4.5l-1.5 1.5V15h13.5v-.75l-1.5-1.5v-4.5c0-2.5125-1.77-4.6125-4.125-5.1225V2.25c0-.6225-.5025-1.125-1.125-1.125zM8.25 6h1.5v3h-1.5V6zm0 4.5h1.5V12h-1.5v-1.5z" fill="#323232"/></svg>