<svg xmlns="http://www.w3.org/2000/svg" width="18" height="18" fill="none"><g clip-path="url(#clip0_4_628)"><path d="M15 13.5c.825 0 1.4925-.675 1.4925-1.5L16.5 4.5c0-.8325-.675-1.5-1.5-1.5H3c-.8325 0-1.5.6675-1.5 1.5V12c0 .825.6675 1.5 1.5 1.5H0V15h18v-1.5h-3zM3 12V4.5h12v7.5075L3 12zm6.75-5.1525c-2.9175.405-4.08 2.4-4.5 4.4025 1.0425-1.4025 2.415-2.04 4.5-2.04v1.6425l3-2.805-3-2.7975v1.5975z" fill="#323232"/></g><defs><clipPath id="clip0_4_628"><path fill="#fff" d="M0 0h18v18H0z"/></clipPath></defs></svg>