<svg xmlns="http://www.w3.org/2000/svg" width="18" height="18" fill="none">
  <g clip-path="url(#clip0_3_613)">
    <path
      d="M9 4.5c.825 0 1.5.675 1.5 1.5S9.825 7.5 9 7.5 7.5 6.825 7.5 6 8.175 4.5 9 4.5zM9 12c2.025 0 4.35.9675 4.5 1.5h-9C4.6725 12.96 6.9825 12 9 12zm0-9C7.3425 3 6 4.3425 6 6s1.3425 3 3 3 3-1.3425 3-3-1.3425-3-3-3zm0 7.5c-2.0025 0-6 1.005-6 3V15h12v-1.5c0-1.995-3.9975-3-6-3z"
      fill="#323232"
    />
  </g>
  <defs>
    <clipPath id="clip0_3_613">
      <path fill="#fff" d="M0 0h18v18H0z" />
    </clipPath>
  </defs>
</svg>